<?xml version="1.0" encoding="UTF-8" standalone="no"?>
<!-- Generator: Fusion 360, Shaper Origin Export Add-In, Version 1.5.0  -->

<svg
   xmlns:shaper="http://www.shapertools.com/namespaces/shaper"
   xmlns:dc="http://purl.org/dc/elements/1.1/"
   xmlns:cc="http://creativecommons.org/ns#"
   xmlns:rdf="http://www.w3.org/1999/02/22-rdf-syntax-ns#"
   xmlns:svg="http://www.w3.org/2000/svg"
   xmlns="http://www.w3.org/2000/svg"
   xmlns:sodipodi="http://sodipodi.sourceforge.net/DTD/sodipodi-0.dtd"
   xmlns:inkscape="http://www.inkscape.org/namespaces/inkscape"
   enable-background="new 0 0 7.6000038 4.7"
   height="4.7cm"
   shaper:fusionaddin="version:1.5.0"
   version="1.1"
   viewBox="0 0 7.6000038 4.7"
   width="7.6000038cm"
   x="0cm"
   xml:space="preserve"
   y="0cm"
   id="svg5736"
   sodipodi:docname="WTLV1_mitButton.svg"
   inkscape:version="0.92.2 (5c3e80d, 2017-08-06)"><metadata
     id="metadata5742"><rdf:RDF><cc:Work
         rdf:about=""><dc:format>image/svg+xml</dc:format><dc:type
           rdf:resource="http://purl.org/dc/dcmitype/StillImage" /></cc:Work></rdf:RDF></metadata><defs
     id="defs5740" /><sodipodi:namedview
     pagecolor="#ffffff"
     bordercolor="#666666"
     borderopacity="1"
     objecttolerance="10"
     gridtolerance="10"
     guidetolerance="10"
     inkscape:pageopacity="0"
     inkscape:pageshadow="2"
     inkscape:window-width="1920"
     inkscape:window-height="1001"
     id="namedview5738"
     showgrid="false"
     inkscape:zoom="2.32"
     inkscape:cx="25.216761"
     inkscape:cy="85.701493"
     inkscape:window-x="-9"
     inkscape:window-y="-9"
     inkscape:window-maximized="1"
     inkscape:current-layer="svg5736" /><path
     d="M-0.3000038,2.3500662 a0.45,0.45 0 1,1 0.9,0 a0.45,0.45 0 1,1 -0.9,0z"
     fill="rgb(0,0,0)"
     shaper:cutDepth="0"
     shaper:pathType="exterior"
     transform="matrix(1,0,0,-1,1.0000038,4.7)"
     vector-effect="non-scaling-stroke"
     id="path5728" /><path
     d="M-0.0000038,4.7 A1,1 90 0,1 -1.0000038,3.6999976 L-1,0.9999986 A1,1 180.0000807 0,1 0,-0 L5.6,0 A1,1 270 0,1 6.6,1.0000014 L6.5999962,3.7000031 A1,1 0.0001801 0,1 5.5999962,4.7 L-0.0000038,4.7z"
     fill="rgb(0,0,0)"
     shaper:cutDepth="0"
     shaper:pathType="exterior"
     transform="matrix(1,0,0,-1,1.0000038,4.7)"
     vector-effect="non-scaling-stroke"
     id="path5730" /><path
     d="M4.3099962,3.115 L4.3099962,1.585 1.2899962,1.585 1.2899962,3.115 4.3099962,3.115z"
     fill="rgb(255,255,255)"
     shaper:cutDepth="0"
     shaper:pathType="interior"
     stroke="rgb(0,0,0)"
     transform="matrix(1,0,0,-1,1.0000038,4.7)"
     vector-effect="non-scaling-stroke"
     id="path5732" /><path
     d="M-0.3300038,2.3500662 a0.48,0.48 0 1,1 0.96,0 a0.48,0.48 0 1,1 -0.96,0z"
     fill="rgb(255,255,255)"
     shaper:cutDepth="0"
     shaper:pathType="interior"
     stroke="rgb(0,0,0)"
     transform="matrix(1,0,0,-1,1.0000038,4.7)"
     vector-effect="non-scaling-stroke"
     id="path5734" /><ellipse
     style="opacity:1;fill:#000000;fill-opacity:1;stroke:none;stroke-width:0.58955365;stroke-miterlimit:4;stroke-dasharray:none;stroke-opacity:1"
     id="path6287"
     cx="1.1520144"
     cy="2.3485355"
     rx="0.40103957"
     ry="0.39793855" /></svg>