<?xml version="1.0" encoding="utf-8"?>
<!-- Generator: Fusion 360, Shaper Origin Export Add-In, Version 1.5.0  -->
<svg enable-background="new 0 0 10.5 10.5" height="10.5cm" shaper:fusionaddin="version:1.5.0" version="1.1" viewBox="0 0 10.5 10.5" width="10.5cm" x="0cm" xml:space="preserve" xmlns="http://www.w3.org/2000/svg" xmlns:shaper="http://www.shapertools.com/namespaces/shaper" xmlns:xlink="http://www.w3.org/1999/xlink" y="0cm"><path d="M-1.3484769,5.4472489 L-1.3499998,5.3600004 -1.3499998,-0.1399999 -1.3484769,-0.2272487 -1.3469886,-0.2626691 -1.3439101,-0.3143916 -1.3379619,-0.3850427 -1.3363049,-0.4013209 -1.3256703,-0.4879336 -1.3229411,-0.5068259 -1.3120193,-0.57412 -1.3019633,-0.6277251 -1.2953688,-0.6597791 -1.2757391,-0.7448039 -1.2753272,-0.7463415 -1.2750782,-0.7474504 -1.2531542,-0.8290935 -1.2423508,-0.8657117 -1.2276411,-0.9125428 -1.20386,-0.9822249 -1.1992313,-0.99505 -1.1679597,-1.0765166 -1.1596989,-1.0967078 -1.1338637,-1.1568418 -1.109973,-1.2088876 -1.0969851,-1.2359281 -1.0573689,-1.3136783 -1.0558137,-1.3164844 -1.0548029,-1.3184924 -1.0150634,-1.3899999 -0.9943214,-1.4252563 -0.97012,-1.4647975 -0.9286739,-1.5289254 -0.9225939,-1.5379825 -0.8725424,-1.6094623 -0.8580189,-1.6292481 -0.8200269,-1.679153 -0.782526,-1.7259822 -0.7651109,-1.7469697 -0.7078621,-1.8128266 -0.7023778,-1.8188968 -0.6483495,-1.8766456 -0.6177668,-1.9077668 -0.5866457,-1.9383502 -0.5288973,-1.9923778 -0.5228266,-1.9978614 -0.4569691,-2.0551105 -0.4359831,-2.0725255 -0.3891535,-2.1100268 -0.3392481,-2.1480193 -0.319463,-2.1625419 -0.2479821,-2.2125936 -0.2389256,-2.2186732 -0.174798,-2.2601199 -0.1352568,-2.2843213 -0.0999999,-2.3050637 -0.0284917,-2.3448024 -0.0236788,-2.3473687 0.0540723,-2.3869853 0.0811123,-2.3999724 0.1331587,-2.4238639 0.1932915,-2.4496989 0.2134837,-2.4579597 0.2949498,-2.4892306 0.3077754,-2.4938607 0.3774576,-2.5176415 0.4242883,-2.532351 0.4609066,-2.5431542 0.5425497,-2.5650783 0.5451955,-2.5657392 0.6302209,-2.5853686 0.6622742,-2.5919642 0.7158798,-2.6020188 0.7831739,-2.6129413 0.8020672,-2.6156697 0.8886789,-2.6263041 0.9049572,-2.6279616 0.9756089,-2.6339107 1.027331,-2.6369891 1.0627514,-2.6384768 1.15,-2.6399999 6.6500002,-2.6399999 6.737249,-2.6384768 6.7726694,-2.6369891 6.824392,-2.6339107 6.895043,-2.6279616 6.9113213,-2.6263041 6.997934,-2.6156697 7.0168263,-2.6129413 7.0841204,-2.6020188 7.1377255,-2.5919642 7.1697794,-2.5853686 7.2548043,-2.5657392 7.2563403,-2.5653276 7.2574507,-2.5650783 7.3390938,-2.5431542 7.375712,-2.532351 7.4225432,-2.5176415 7.4922253,-2.4938607 7.5050503,-2.4892306 7.586517,-2.4579597 7.6067082,-2.4496989 7.6668421,-2.4238639 7.7188879,-2.3999724 7.7459284,-2.3869853 7.8236786,-2.3473687 7.8264945,-2.3458082 7.8284928,-2.3448024 7.9000002,-2.3050637 7.9352566,-2.2843213 7.9747978,-2.2601199 8.0389258,-2.2186732 8.0479828,-2.2125936 8.1194626,-2.1625419 8.1392485,-2.1480193 8.1891533,-2.1100268 8.2359825,-2.0725255 8.25697,-2.0551105 8.322827,-1.9978614 8.3288971,-1.9923778 8.3866459,-1.9383502 8.4177672,-1.9077668 8.4483505,-1.8766456 8.5023781,-1.8188968 8.5078617,-1.8128266 8.5651108,-1.7469697 8.5825258,-1.7259822 8.6200272,-1.679153 8.6580197,-1.6292481 8.6725422,-1.6094623 8.7225939,-1.5379825 8.7286736,-1.5289254 8.7701203,-1.4647975 8.7943217,-1.4252563 8.8150641,-1.3899999 8.8548027,-1.3184924 8.8573691,-1.3136783 8.8969857,-1.2359281 8.9099728,-1.2088876 8.9338642,-1.1568418 8.9596993,-1.0967078 8.96796,-1.0765166 8.999231,-0.99505 9.0038611,-0.9822249 9.0276419,-0.9125428 9.0423514,-0.8657117 9.0531546,-0.8290935 9.0750786,-0.7474504 9.0757395,-0.7448039 9.095369,-0.6597791 9.1019646,-0.6277251 9.1120192,-0.57412 9.1229416,-0.5068259 9.1256701,-0.4879336 9.1363045,-0.4013209 9.137962,-0.3850427 9.143911,-0.3143916 9.1469895,-0.2626691 9.1484772,-0.2272487 9.1500002,-0.1399999 9.1500002,5.3600004 9.1484772,5.4472489 9.1469895,5.4826694 9.143911,5.5343914 9.137962,5.6050432 9.1363045,5.6213214 9.1256701,5.7079332 9.1229416,5.7268264 9.1120192,5.7941206 9.1019646,5.8477261 9.095369,5.8797795 9.0757395,5.9648049 9.0753273,5.9663433 9.0750786,5.9674506 9.0531546,6.0490937 9.0423514,6.0857121 9.0276419,6.1325427 9.0038611,6.202225 8.999231,6.2150506 8.96796,6.2965167 8.9596993,6.3167088 8.9338642,6.3768417 8.9099728,6.4288881 8.8969857,6.4559281 8.8573691,6.5336791 8.8558036,6.5365036 8.8548027,6.5384921 8.8150641,6.6100003 8.7943217,6.6452571 8.7701203,6.6847984 8.7286736,6.7489259 8.7225939,6.7579825 8.6725422,6.8294634 8.6580197,6.8492484 8.6200272,6.8991539 8.5825258,6.9459834 8.5651108,6.9669695 8.5078617,7.032827 8.5023781,7.0388977 8.4483505,7.0966461 8.4177672,7.1277671 8.3866459,7.1583499 8.3288971,7.2123781 8.322827,7.2178625 8.25697,7.2751113 8.2359825,7.2925263 8.1891533,7.3300273 8.1392485,7.3680193 8.1194626,7.3825427 8.0479828,7.4325942 8.0389258,7.4386742 7.9747978,7.4801204 7.9352566,7.5043217 7.9000002,7.5250638 7.8284928,7.5648033 7.8236786,7.5673693 7.7459284,7.6069855 7.7188879,7.6199733 7.6668421,7.643864 7.6067082,7.6696993 7.586517,7.6779601 7.5050503,7.7092317 7.4922253,7.7138603 7.4225432,7.7376415 7.375712,7.7523512 7.3390938,7.7631545 7.2574507,7.7850786 7.2548043,7.7857395 7.1697794,7.8053691 7.1377255,7.8119636 7.0841204,7.8220197 7.0168263,7.8329415 6.997934,7.8356706 6.9113213,7.8463052 6.895043,7.8479622 6.824392,7.8539104 6.7726694,7.856989 6.737249,7.8584772 6.6500002,7.8600001 1.15,7.8600001 1.0627514,7.8584772 1.027331,7.856989 0.9756089,7.8539104 0.9049572,7.8479622 0.8886789,7.8463052 0.8020672,7.8356706 0.7831739,7.8329415 0.7158798,7.8220197 0.6622742,7.8119636 0.6302209,7.8053691 0.5451955,7.7857395 0.5436555,7.7853269 0.5425497,7.7850786 0.4609066,7.7631545 0.4242883,7.7523512 0.3774576,7.7376415 0.3077754,7.7138603 0.2949498,7.7092317 0.2134837,7.6779601 0.1932915,7.6696993 0.1331587,7.643864 0.0811123,7.6199733 0.0540723,7.6069855 -0.0236788,7.5673693 -0.0264935,7.5658091 -0.0284917,7.5648033 -0.0999999,7.5250638 -0.1352568,7.5043217 -0.174798,7.4801204 -0.2389256,7.4386742 -0.2479821,7.4325942 -0.319463,7.3825427 -0.3392481,7.3680193 -0.3891535,7.3300273 -0.4359831,7.2925263 -0.4569691,7.2751113 -0.5228266,7.2178625 -0.5288973,7.2123781 -0.5866457,7.1583499 -0.6177668,7.1277671 -0.6483495,7.0966461 -0.7023778,7.0388977 -0.7078621,7.032827 -0.7651109,6.9669695 -0.782526,6.9459834 -0.8200269,6.8991539 -0.8580189,6.8492484 -0.8725424,6.8294634 -0.9225939,6.7579825 -0.9286739,6.7489259 -0.97012,6.6847984 -0.9943214,6.6452571 -1.0150634,6.6100003 -1.0548029,6.5384921 -1.0573689,6.5336791 -1.0969851,6.4559281 -1.109973,6.4288881 -1.1338637,6.3768417 -1.1596989,6.3167088 -1.1679597,6.2965167 -1.1992313,6.2150506 -1.20386,6.202225 -1.2276411,6.1325427 -1.2423508,6.0857121 -1.2531542,6.0490937 -1.2750782,5.9674506 -1.2757391,5.9648049 -1.2953688,5.8797795 -1.3019633,5.8477261 -1.3120193,5.7941206 -1.3229411,5.7268264 -1.3256703,5.7079332 -1.3363049,5.6213214 -1.3379619,5.6050432 -1.3439101,5.5343914 -1.3469886,5.4826694 -1.3484769,5.4472489z" fill="rgb(0,0,0)" shaper:cutDepth="0" shaper:pathType="exterior" transform="matrix(1,0,0,-1,1.3499998,7.8600001)" vector-effect="non-scaling-stroke" /><path d="M1.0200001,4.6700006 L1.0202333,4.6768243 1.0209316,4.6836171 1.0220917,4.6903458 1.0237082,4.6969798 1.0257739,4.7034881 1.0282789,4.7098403 1.0312115,4.7160068 1.0345582,4.7219586 1.038303,4.7276685 1.0424291,4.7331092 1.0469164,4.7382555 1.0517448,4.7430837 1.0568913,4.7475715 1.062332,4.7516973 1.0680417,4.7554424 1.0739936,4.7587888 1.08016,4.7617214 1.0865122,4.7642262 1.0930206,4.7662921 1.0996546,4.7679088 1.1063834,4.7690687 1.1131757,4.769767 1.1200002,4.7700002 6.6799999,4.7700002 6.6868244,4.769767 6.6936165,4.7690687 6.7003456,4.7679088 6.7069794,4.7662921 6.7134882,4.7642262 6.7198406,4.7617214 6.7260071,4.7587888 6.731959,4.7554424 6.7376686,4.7516973 6.7431084,4.7475715 6.7482554,4.7430837 6.7530838,4.7382555 6.7575718,4.7331092 6.7616974,4.7276685 6.7654425,4.7219586 6.7687889,4.7160068 6.7717215,4.7098403 6.7742268,4.7034881 6.7762924,4.6969798 6.7779089,4.6903458 6.7790695,4.6836171 6.7797676,4.6768243 6.7800003,4.6700006 6.7800003,0.5500002 6.7797676,0.5431757 6.7790695,0.5363832 6.7779089,0.529655 6.7762924,0.5230203 6.7742268,0.5165124 6.7717215,0.5101604 6.7687889,0.503994 6.7654425,0.4980416 6.7616974,0.4923325 6.7575718,0.4868913 6.7530838,0.4817452 6.7482554,0.4769168 6.7431084,0.4724293 6.7376686,0.4683032 6.731959,0.4645576 6.7260071,0.4612117 6.7198406,0.4582787 6.7134882,0.4557743 6.7069794,0.4537086 6.7003456,0.4520922 6.6936165,0.4509315 6.6868244,0.4502335 6.6799999,0.4499993 1.1200002,0.4499993 1.1131757,0.4502335 1.1063834,0.4509315 1.0996546,0.4520922 1.0930206,0.4537086 1.0865122,0.4557743 1.08016,0.4582787 1.0739936,0.4612117 1.0680417,0.4645576 1.062332,0.4683032 1.0568913,0.4724293 1.0517448,0.4769168 1.0469164,0.4817452 1.0424291,0.4868913 1.038303,0.4923325 1.0345582,0.4980416 1.0312115,0.503994 1.0282789,0.5101604 1.0257739,0.5165124 1.0237082,0.5230203 1.0220917,0.529655 1.0209316,0.5363832 1.0202333,0.5431757 1.0200001,0.5500002 1.0200001,4.6700006z" fill="rgb(255,255,255)" shaper:cutDepth="0" shaper:pathType="interior" stroke="rgb(0,0,0)" transform="matrix(1,0,0,-1,1.3499998,7.8600001)" vector-effect="non-scaling-stroke" /></svg>