<?xml version="1.0" encoding="utf-8"?>
<!-- Generator: Fusion 360, Shaper Origin Export Add-In, Version 1.5.0  -->
<svg enable-background="new 0 0 8.5 8.5" height="8.5cm" shaper:fusionaddin="version:1.5.0" version="1.1" viewBox="0 0 8.5 8.5" width="8.5cm" x="0cm" xml:space="preserve" xmlns="http://www.w3.org/2000/svg" xmlns:shaper="http://www.shapertools.com/namespaces/shaper" xmlns:xlink="http://www.w3.org/1999/xlink" y="0cm"><path d="M7.45,4.83 A1.95,1.95 0 0,1 5.5,6.78 L0.9,6.78 A1.95,1.95 90 0,1 -1.05,4.83 L-1.05,0.23 A1.95,1.95 180 0,1 0.9,-1.72 L5.5,-1.72 A1.95,1.95 270 0,1 7.45,0.23 L7.45,4.83z" fill="rgb(0,0,0)" shaper:cutDepth="0" shaper:pathType="exterior" transform="matrix(1,0,0,-1,1.05,6.78)" vector-effect="non-scaling-stroke" /><path d="M0.39,0.22 A0.2,0.2 270 0,0 0.19,0.42 L0.19,4.64 A0.2,0.2 180 0,0 0.39,4.84 L6.01,4.84 A0.2,0.2 90 0,0 6.21,4.64 L6.21,0.42 A0.2,0.2 0 0,0 6.01,0.22 L0.39,0.22z" fill="rgb(255,255,255)" shaper:cutDepth="0" shaper:pathType="interior" stroke="rgb(0,0,0)" transform="matrix(1,0,0,-1,1.05,6.78)" vector-effect="non-scaling-stroke" /></svg>