<?xml version="1.0" encoding="UTF-8" standalone="no"?>
<!-- Generator: Fusion 360, Shaper Origin Export Add-In, Version 1.5.0  -->

<svg
   xmlns:shaper="http://www.shapertools.com/namespaces/shaper"
   xmlns:dc="http://purl.org/dc/elements/1.1/"
   xmlns:cc="http://creativecommons.org/ns#"
   xmlns:rdf="http://www.w3.org/1999/02/22-rdf-syntax-ns#"
   xmlns:svg="http://www.w3.org/2000/svg"
   xmlns="http://www.w3.org/2000/svg"
   xmlns:sodipodi="http://sodipodi.sourceforge.net/DTD/sodipodi-0.dtd"
   xmlns:inkscape="http://www.inkscape.org/namespaces/inkscape"
   enable-background="new 0 0 5.84 5.84"
   height="5.84cm"
   shaper:fusionaddin="version:1.5.0"
   version="1.1"
   viewBox="0 0 5.84 5.84"
   width="5.84cm"
   x="0cm"
   xml:space="preserve"
   y="0cm"
   id="svg4586"
   sodipodi:docname="WTNV1.svg"
   inkscape:version="0.92.2 (5c3e80d, 2017-08-06)"><metadata
     id="metadata4592"><rdf:RDF><cc:Work
         rdf:about=""><dc:format>image/svg+xml</dc:format><dc:type
           rdf:resource="http://purl.org/dc/dcmitype/StillImage" /></cc:Work></rdf:RDF></metadata><defs
     id="defs4590" /><sodipodi:namedview
     pagecolor="#ffffff"
     bordercolor="#666666"
     borderopacity="1"
     objecttolerance="10"
     gridtolerance="10"
     guidetolerance="10"
     inkscape:pageopacity="0"
     inkscape:pageshadow="2"
     inkscape:window-width="1920"
     inkscape:window-height="1001"
     id="namedview4588"
     showgrid="false"
     inkscape:zoom="1.0692066"
     inkscape:cx="110.36221"
     inkscape:cy="110.36221"
     inkscape:window-x="-9"
     inkscape:window-y="-9"
     inkscape:window-maximized="1"
     inkscape:current-layer="svg4586" /><path
     d="m 1.42,5.7115829 a 1.42,1.42 0 0 1 -1.42,-1.42 v -3 a 1.42,1.42 0 0 1 1.42,-1.42000001 h 3 A 1.42,1.42 0 0 1 5.84,1.2915829 v 3 a 1.42,1.42 0 0 1 -1.42,1.42 z"
     shaper:cutDepth="0"
     shaper:pathType="exterior"
     id="path4578"
     inkscape:connector-curvature="0"
     style="vector-effect:non-scaling-stroke;fill:#000000" /><path
     d="m 4.145,2.1065829 h -2.46 v 1.32 h 2.46 z"
     shaper:cutDepth="0"
     shaper:pathType="interior"
     id="path4580"
     inkscape:connector-curvature="0"
     style="vector-effect:non-scaling-stroke;fill:#ffffff;stroke:#000000" /><path
     d="M 3.6758994,4.9378155 3.3511596,5.2625553 a 0.04500003,0.04500003 0 1 0 0.06364,0.06364 L 3.7095668,5.0314274 A 0.35,0.35 0 1 0 3.3701555,4.6920161 L 3.075388,4.9867836 a 0.04500003,0.04500003 0 1 0 0.06364,0.06364 L 3.4637674,4.7256835 a 0.26,0.26 0 1 1 0.212132,0.212132 z"
     shaper:cutDepth="0"
     shaper:pathType="interior"
     id="path4582"
     inkscape:connector-curvature="0"
     style="vector-effect:non-scaling-stroke;fill:#ffffff;stroke:#000000" /><path
     d="m 2.3762326,4.7256835 0.3247398,0.3247398 a 0.04500003,0.04500003 0 0 0 0.06364,-0.06364 L 2.4698445,4.6920161 A 0.35,0.35 0 1 0 2.1304332,5.0314274 l 0.2947675,0.2947675 a 0.04500003,0.04500003 0 0 0 0.06364,-0.06364 L 2.1641006,4.9378155 a 0.26,0.26 0 1 1 0.212132,-0.212132 z"
     shaper:cutDepth="0"
     shaper:pathType="interior"
     id="path4584"
     inkscape:connector-curvature="0"
     style="vector-effect:non-scaling-stroke;fill:#ffffff;stroke:#000000" /></svg>