<?xml version="1.0" encoding="UTF-8" standalone="no"?>
<!-- Generator: Fusion 360, Shaper Origin Export Add-In, Version 1.5.0  -->

<svg
   xmlns:shaper="http://www.shapertools.com/namespaces/shaper"
   xmlns:dc="http://purl.org/dc/elements/1.1/"
   xmlns:cc="http://creativecommons.org/ns#"
   xmlns:rdf="http://www.w3.org/1999/02/22-rdf-syntax-ns#"
   xmlns:svg="http://www.w3.org/2000/svg"
   xmlns="http://www.w3.org/2000/svg"
   xmlns:sodipodi="http://sodipodi.sourceforge.net/DTD/sodipodi-0.dtd"
   xmlns:inkscape="http://www.inkscape.org/namespaces/inkscape"
   enable-background="new 0 0 5.84 5.84"
   height="5.84cm"
   shaper:fusionaddin="version:1.5.0"
   version="1.1"
   viewBox="0 0 5.84 5.84"
   width="5.84cm"
   x="0cm"
   xml:space="preserve"
   y="0cm"
   id="svg5161"
   sodipodi:docname="WTNV3.svg"
   inkscape:version="0.92.2 (5c3e80d, 2017-08-06)"><metadata
     id="metadata5167"><rdf:RDF><cc:Work
         rdf:about=""><dc:format>image/svg+xml</dc:format><dc:type
           rdf:resource="http://purl.org/dc/dcmitype/StillImage" /></cc:Work></rdf:RDF></metadata><defs
     id="defs5165" /><sodipodi:namedview
     pagecolor="#ffffff"
     bordercolor="#666666"
     borderopacity="1"
     objecttolerance="10"
     gridtolerance="10"
     guidetolerance="10"
     inkscape:pageopacity="0"
     inkscape:pageshadow="2"
     inkscape:window-width="1920"
     inkscape:window-height="1001"
     id="namedview5163"
     showgrid="false"
     inkscape:zoom="1.0692066"
     inkscape:cx="110.36221"
     inkscape:cy="110.36221"
     inkscape:window-x="-9"
     inkscape:window-y="-9"
     inkscape:window-maximized="1"
     inkscape:current-layer="svg5161" /><path
     d="M 1.42,5.84 A 1.42,1.42 0 0 1 0,4.42 v -3 A 1.42,1.42 0 0 1 1.42,0 h 3 a 1.42,1.42 0 0 1 1.42,1.42 v 3 A 1.42,1.42 0 0 1 4.42,5.84 Z"
     shaper:cutDepth="0"
     shaper:pathType="exterior"
     id="path5153"
     inkscape:connector-curvature="0"
     style="vector-effect:non-scaling-stroke;fill:#000000" /><path
     d="M 1.62,4.5 V 4.51 A 0.04,0.04 0 0 0 1.66,4.55 H 2.12 A 0.26,0.26 0 0 1 2.38,4.81 V 5.12 A 0.04,0.04 0 0 0 2.42,5.16 H 2.43 A 0.04,0.04 0 0 0 2.47,5.12 V 4.8205887 L 2.4698445,4.8204332 A 0.35,0.35 0 0 0 2.12,4.46 H 1.66 A 0.04,0.04 0 0 0 1.62,4.5 Z"
     shaper:cutDepth="0"
     shaper:pathType="interior"
     id="path5155"
     inkscape:connector-curvature="0"
     style="vector-effect:non-scaling-stroke;fill:#ffffff;stroke:#000000" /><path
     d="M 3.41,5.16 H 3.42 A 0.04,0.04 0 0 0 3.46,5.12 V 4.81 A 0.26,0.26 0 0 1 3.72,4.55 H 4.18 A 0.04,0.04 0 0 0 4.22,4.51 V 4.5 A 0.04,0.04 0 0 0 4.18,4.46 H 3.72 A 0.35,0.35 0 0 0 3.3701555,4.8204332 L 3.37,4.8205887 V 5.12 a 0.04,0.04 0 0 0 0.04,0.04 z"
     shaper:cutDepth="0"
     shaper:pathType="interior"
     id="path5157"
     inkscape:connector-curvature="0"
     style="vector-effect:non-scaling-stroke;fill:#ffffff;stroke:#000000" /><path
     d="M 1.36,2.1 V 3.73 H 4.48 V 2.1 Z"
     shaper:cutDepth="0"
     shaper:pathType="interior"
     id="path5159"
     inkscape:connector-curvature="0"
     style="vector-effect:non-scaling-stroke;fill:#ffffff;stroke:#000000" /></svg>