<?xml version="1.0" encoding="utf-8"?>
<!-- Generator: Adobe Illustrator 16.0.0, SVG Export Plug-In . SVG Version: 6.00 Build 0)  -->
<!DOCTYPE svg PUBLIC "-//W3C//DTD SVG 1.1//EN" "http://www.w3.org/Graphics/SVG/1.1/DTD/svg11.dtd">
<svg version="1.1" id="Ebene_1" xmlns="http://www.w3.org/2000/svg" xmlns:xlink="http://www.w3.org/1999/xlink" x="0px" y="0px"
	 width="200px" height="200px" viewBox="0 0 200 200" enable-background="new 0 0 200 200" xml:space="preserve">
<path fill="#1D1D1B" d="M191.87,95.118c-2.146,0-4.17,0.807-5.701,2.27l-87.344,83.537L13.65,97.456
	c-1.538-1.508-3.588-2.338-5.771-2.338c-2.162,0-4.197,0.816-5.73,2.299c-1.542,1.49-2.395,3.474-2.402,5.588
	c-0.007,2.113,0.831,4.103,2.361,5.603l90.875,89.057c0.172,0.168,0.355,0.314,0.543,0.453l0.151,0.123
	c0.179,0.152,0.362,0.299,0.556,0.426c0.196,0.127,0.395,0.23,0.596,0.328l0.176,0.092c0.211,0.117,0.426,0.229,0.648,0.318
	c0.201,0.08,0.41,0.143,0.622,0.199l0.191,0.057c0.228,0.074,0.455,0.141,0.688,0.188c0.213,0.041,0.421,0.061,0.63,0.076
	l0.189,0.02c0.245,0.031,0.49,0.057,0.737,0.057c0.001,0,0.001,0,0.001,0c0.218,0,0.416-0.018,0.614-0.039l0.179-0.016
	c0.252-0.014,0.503-0.035,0.751-0.08c0.208-0.039,0.409-0.094,0.607-0.156l0.176-0.049c0.245-0.061,0.487-0.129,0.726-0.221
	c0.21-0.08,0.409-0.18,0.606-0.287l0.177-0.09c0.218-0.1,0.433-0.209,0.64-0.34c0.216-0.137,0.419-0.297,0.617-0.461l0.094-0.078
	c0.226-0.164,0.397-0.299,0.56-0.453l93.114-89.055c3.197-3.058,3.242-8.078,0.099-11.191
	C196.13,95.959,194.069,95.118,191.87,95.118z"/>
</svg>
