<?xml version="1.0" encoding="utf-8"?>
<!-- Generator: Adobe Illustrator 16.0.0, SVG Export Plug-In . SVG Version: 6.00 Build 0)  -->
<!DOCTYPE svg PUBLIC "-//W3C//DTD SVG 1.1//EN" "http://www.w3.org/Graphics/SVG/1.1/DTD/svg11.dtd">
<svg version="1.1" id="Ebene_1" xmlns="http://www.w3.org/2000/svg" xmlns:xlink="http://www.w3.org/1999/xlink" x="0px" y="0px"
	 width="200px" height="200px" viewBox="0 0 200 200" enable-background="new 0 0 200 200" xml:space="preserve">
<path fill="#1D1D1B" d="M104.883,7.876c0,2.146-0.807,4.17-2.27,5.701l-83.537,87.345l83.469,85.174
	c1.508,1.538,2.338,3.588,2.338,5.771c0,2.161-0.816,4.196-2.299,5.73c-1.49,1.541-3.475,2.395-5.589,2.402
	c-2.113,0.007-4.103-0.832-5.603-2.361L2.336,106.764c-0.168-0.172-0.314-0.355-0.453-0.543l-0.123-0.152
	c-0.152-0.179-0.299-0.361-0.426-0.556c-0.127-0.196-0.23-0.395-0.328-0.596l-0.092-0.176c-0.117-0.212-0.229-0.426-0.318-0.647
	c-0.08-0.201-0.143-0.41-0.199-0.623l-0.057-0.191c-0.074-0.227-0.141-0.455-0.188-0.688c-0.041-0.213-0.061-0.422-0.076-0.631
	l-0.02-0.188C0.025,101.527,0,101.282,0,101.035l0,0c0-0.219,0.018-0.416,0.039-0.615l0.016-0.179
	c0.014-0.252,0.035-0.503,0.08-0.751c0.039-0.208,0.094-0.409,0.156-0.607l0.049-0.176c0.061-0.245,0.129-0.487,0.221-0.726
	c0.08-0.21,0.18-0.409,0.287-0.606l0.09-0.177c0.1-0.218,0.209-0.433,0.34-0.64c0.137-0.216,0.297-0.419,0.461-0.617l0.078-0.094
	c0.164-0.226,0.299-0.397,0.453-0.56L91.324,2.174c3.058-3.197,8.078-3.242,11.191-0.099C104.041,3.616,104.883,5.677,104.883,7.876
	z"/>
</svg>
