<?xml version="1.0" encoding="utf-8"?>
<!-- Generator: Adobe Illustrator 16.0.0, SVG Export Plug-In . SVG Version: 6.00 Build 0)  -->
<!DOCTYPE svg PUBLIC "-//W3C//DTD SVG 1.1//EN" "http://www.w3.org/Graphics/SVG/1.1/DTD/svg11.dtd">
<svg version="1.1" id="Ebene_1" xmlns="http://www.w3.org/2000/svg" xmlns:xlink="http://www.w3.org/1999/xlink" x="0px" y="0px"
	 width="200px" height="200px" viewBox="0 0 200 200" enable-background="new 0 0 200 200" xml:space="preserve">
<path fill="#1D1D1B" d="M95.118,7.876c0,2.146,0.807,4.17,2.27,5.701l83.537,87.345l-83.468,85.174
	c-1.508,1.538-2.338,3.588-2.338,5.771c0,2.161,0.816,4.196,2.299,5.73c1.49,1.541,3.474,2.395,5.588,2.402
	c2.113,0.007,4.103-0.832,5.603-2.361l89.057-90.875c0.168-0.172,0.314-0.355,0.453-0.543l0.123-0.152
	c0.152-0.179,0.299-0.361,0.426-0.556c0.127-0.196,0.23-0.395,0.328-0.596l0.092-0.176c0.117-0.212,0.229-0.426,0.318-0.647
	c0.08-0.201,0.143-0.41,0.199-0.623l0.057-0.191c0.074-0.227,0.141-0.455,0.188-0.688c0.041-0.213,0.061-0.422,0.076-0.631
	l0.02-0.188c0.031-0.245,0.057-0.49,0.057-0.737l0,0c0-0.219-0.018-0.416-0.039-0.615l-0.016-0.179
	c-0.014-0.252-0.035-0.503-0.08-0.751c-0.039-0.208-0.094-0.409-0.156-0.607l-0.049-0.176c-0.061-0.245-0.129-0.487-0.221-0.726
	c-0.08-0.21-0.18-0.409-0.287-0.606l-0.09-0.177c-0.1-0.218-0.209-0.433-0.34-0.64c-0.137-0.216-0.297-0.419-0.461-0.617
	l-0.078-0.094c-0.164-0.226-0.299-0.397-0.453-0.56L108.676,2.174c-3.058-3.197-8.078-3.242-11.191-0.099
	C95.959,3.616,95.118,5.677,95.118,7.876z"/>
</svg>
