<?xml version="1.0" encoding="utf-8"?>
<!-- Generator: Adobe Illustrator 16.0.0, SVG Export Plug-In . SVG Version: 6.00 Build 0)  -->
<!DOCTYPE svg PUBLIC "-//W3C//DTD SVG 1.1//EN" "http://www.w3.org/Graphics/SVG/1.1/DTD/svg11.dtd">
<svg version="1.1" id="Ebene_1" xmlns="http://www.w3.org/2000/svg" xmlns:xlink="http://www.w3.org/1999/xlink" x="0px" y="0px"
	 width="200px" height="200px" viewBox="0 0 200 200" enable-background="new 0 0 200 200" xml:space="preserve">
<path fill="#1D1D1B" d="M192.124,104.883c-2.146,0-4.17-0.807-5.701-2.27L99.079,19.076l-85.174,83.469
	c-1.538,1.508-3.588,2.338-5.771,2.338c-2.162,0-4.197-0.816-5.73-2.299C0.861,101.094,0.008,99.11,0,96.996
	c-0.007-2.113,0.831-4.103,2.361-5.603L93.237,2.336c0.172-0.167,0.355-0.313,0.543-0.454l0.151-0.122
	c0.179-0.153,0.362-0.3,0.556-0.426c0.196-0.128,0.395-0.231,0.596-0.328l0.176-0.092c0.211-0.118,0.426-0.229,0.648-0.318
	c0.201-0.081,0.41-0.143,0.622-0.199l0.191-0.056c0.228-0.074,0.455-0.142,0.688-0.188c0.213-0.041,0.421-0.062,0.63-0.077
	l0.189-0.02c0.245-0.031,0.49-0.056,0.737-0.057c0.001,0,0.001,0,0.001,0c0.218,0,0.416,0.017,0.614,0.04l0.179,0.015
	c0.252,0.015,0.503,0.036,0.751,0.081c0.208,0.038,0.409,0.094,0.607,0.155l0.176,0.049c0.245,0.062,0.487,0.129,0.726,0.221
	c0.21,0.081,0.409,0.181,0.606,0.288l0.177,0.089c0.218,0.101,0.433,0.209,0.64,0.34c0.216,0.137,0.419,0.296,0.617,0.462
	l0.094,0.078c0.226,0.164,0.397,0.298,0.56,0.454l93.114,89.054c3.197,3.058,3.242,8.079,0.099,11.191
	C196.384,104.041,194.323,104.883,192.124,104.883z"/>
</svg>
