<!-- Generator: Adobe Illustrator 19.0.0, SVG Export Plug-In  -->
<svg version="1.1"
	 xmlns="http://www.w3.org/2000/svg" xmlns:xlink="http://www.w3.org/1999/xlink" xmlns:a="http://ns.adobe.com/AdobeSVGViewerExtensions/3.0/"
	 x="0px" y="0px" width="200px" height="200px" viewBox="0 0 200 200" style="enable-background:new 0 0 200 200;"
	 xml:space="preserve">
<style type="text/css">
	.st0{fill:#FFFFFF;}
</style>
<defs>
</defs>
<g>
	<path d="M53,0c31.3,0,62.7,0,94,0c0,30.6,0,61.2,0,92.2c11.9,0,23.2,0,34.4,0c4.2,0,8.3,0,12.5,0.4c1.8,0.2,4.3,1.3,4.8,2.6
		c0.5,1.4-1,3.5-1.8,5.3c-0.3,0.7-1.1,1.2-1.7,1.8c-12,11-24,22.1-36.2,33c-16.1,14.5-32.3,28.8-48.6,43.1c-7,6.2-11.6,6.2-19.2,1
		c-1.5-1-3-2.1-4.3-3.4c-18.1-16.2-36.2-32.5-54.3-48.8c-9.3-8.4-18.7-16.6-27.8-25.2C3,100.3,2.3,97.4,1,95c2.5-0.9,5-2.4,7.6-2.5
		c13-0.3,26-0.2,39-0.3c1.7,0,3.5,0,5.5,0C53,60.9,53,30.5,53,0z"/>
	<path class="st0" d="M53,0c0,30.5,0,60.9,0,92.2c-2,0-3.7,0-5.5,0c-13,0-26,0-39,0.3C6,92.5,3.5,94.1,1,95c1.3,2.4,2,5.3,3.9,7.1
		c9.1,8.6,18.5,16.8,27.8,25.2c18.1,16.3,36.2,32.5,54.3,48.8c1.4,1.2,2.8,2.3,4.3,3.4c7.6,5.2,12.2,5.1,19.2-1
		c16.3-14.3,32.5-28.6,48.6-43.1c12.1-10.9,24.1-22,36.2-33c0.6-0.6,1.4-1.1,1.7-1.8c0.8-1.7,2.3-3.9,1.8-5.3
		c-0.5-1.3-3-2.4-4.8-2.6c-4.1-0.4-8.3-0.4-12.5-0.4c-11.3,0-22.6,0-34.4,0c0-31,0-61.6,0-92.2c17.7,0,35.3,0,53,0
		c0,62.7,0,125.3,0,188c-66.7,0-133.3,0-200,0C0,125.3,0,62.7,0,0C17.7,0,35.4,0,53,0z"/>
	<path d="M0,188c66.7,0,133.3,0,200,0c0,4,0,8,0,12c-66.7,0-133.3,0-200,0C0,196,0,192,0,188z"/>
</g>
</svg>