<!-- Generator: Adobe Illustrator 19.0.0, SVG Export Plug-In  -->
<svg version="1.1"
	 xmlns="http://www.w3.org/2000/svg" xmlns:xlink="http://www.w3.org/1999/xlink" xmlns:a="http://ns.adobe.com/AdobeSVGViewerExtensions/3.0/"
	 x="0px" y="0px" width="154px" height="154px" viewBox="0 0 154 154" style="enable-background:new 0 0 154 154;"
	 xml:space="preserve">
<style type="text/css">
	.st0{fill:#FFFFFF;}
</style>
<defs>
</defs>
<g>
	<path d="M154,68c0,6,0,12,0,18c-0.3,0.9-0.8,1.8-0.9,2.7c-6.2,32.3-25.1,53.2-56.5,62.7c-3.5,1-7,1.7-10.5,2.6c-6,0-12,0-18,0
		c-0.9-0.3-1.8-0.8-2.7-0.9c-32.6-6.2-53.4-25.4-62.9-57C1.4,92.8,0.8,89.4,0,86c0-6,0-12,0-18c0.3-0.9,0.7-1.8,0.9-2.8
		C7.1,32.9,26,12.1,57.4,2.6c3.5-1,7-1.7,10.6-2.6c6,0,12,0,18,0c0.9,0.3,1.8,0.7,2.7,0.9c32.3,6.2,53.2,25.1,62.7,56.5
		C152.5,60.9,153.2,64.5,154,68z M77.2,17.1c-32.8-0.1-59.9,26.7-60.1,59.5C16.9,109.6,44,136.9,77,136.9c32.8,0,59.8-27,59.9-59.8
		C137,44.3,110,17.2,77.2,17.1z"/>
	<path class="st0" d="M0,86c0.8,3.4,1.4,6.8,2.4,10.1c9.5,31.6,30.3,50.8,62.9,57c0.9,0.2,1.8,0.6,2.7,0.9c-22.6,0-45.2,0-68,0
		C0,131.3,0,108.7,0,86z"/>
	<path class="st0" d="M86,154c3.5-0.9,7.1-1.5,10.5-2.6c31.5-9.5,50.4-30.4,56.5-62.7c0.2-0.9,0.6-1.8,0.9-2.7c0,22.6,0,45.2,0,68
		C131.3,154,108.7,154,86,154z"/>
	<path class="st0" d="M154,68c-0.8-3.5-1.5-7.1-2.6-10.5C141.9,26,121.1,7.1,88.7,0.9C87.8,0.7,86.9,0.3,86,0c22.7,0,45.3,0,68,0
		C154,22.7,154,45.3,154,68z"/>
	<path class="st0" d="M68,0c-3.5,0.8-7.1,1.5-10.6,2.6C26,12.1,7.1,32.9,0.9,65.2C0.7,66.2,0.3,67.1,0,68C0,45.4,0,22.8,0,0
		C22.7,0,45.3,0,68,0z"/>
	<path class="st0" d="M77.2,17.1c32.8,0.1,59.8,27.2,59.7,60c-0.1,32.8-27.1,59.8-59.9,59.8c-33,0-60.1-27.3-59.9-60.3
		C17.3,43.8,44.4,16.9,77.2,17.1z M85.6,65.5c0-8,0.1-16,0-24c-0.1-6.4-3.2-10.2-8.3-10.4C72,31,68.4,35,68.4,41.5
		c-0.1,16-0.1,31.9,0,47.9c0,6.6,3.6,10.6,8.8,10.4c5.1-0.2,8.3-4,8.3-10.4C85.6,81.5,85.6,73.5,85.6,65.5z M85.5,114.6
		c-0.1-4.7-4.2-8.6-8.8-8.4c-4.7,0.2-8.5,4.3-8.3,8.9c0.2,4.6,3.9,8.1,8.5,8.1C81.8,123.2,85.6,119.3,85.5,114.6z"/>
	<path d="M85.6,65.5c0,8,0.1,16,0,24c-0.1,6.4-3.2,10.2-8.3,10.4C72,100,68.4,96,68.4,89.5c-0.1-16-0.1-31.9,0-47.9
		c0-6.6,3.6-10.6,8.8-10.4c5.1,0.2,8.3,4,8.3,10.4C85.6,49.5,85.6,57.5,85.6,65.5z"/>
	<path d="M85.5,114.6c0.1,4.7-3.7,8.6-8.5,8.6c-4.6,0-8.3-3.5-8.5-8.1c-0.2-4.7,3.6-8.8,8.3-8.9C81.4,106,85.4,109.9,85.5,114.6z"/>
</g>
</svg>