<?xml version="1.0" encoding="utf-8"?>
<!-- Generator: Adobe Illustrator 16.0.0, SVG Export Plug-In . SVG Version: 6.00 Build 0)  -->
<!DOCTYPE svg PUBLIC "-//W3C//DTD SVG 1.1//EN" "http://www.w3.org/Graphics/SVG/1.1/DTD/svg11.dtd">
<svg version="1.1" id="Ebene_1" xmlns="http://www.w3.org/2000/svg" xmlns:xlink="http://www.w3.org/1999/xlink" x="0px" y="0px"
	 width="200px" height="200px" viewBox="0 0 200 200" enable-background="new 0 0 200 200" xml:space="preserve">
<g>
	<path d="M53,0c31.3,0,62.7,0,94,0c0,30.6,0,61.2,0,92.2c11.9,0,23.2,0,34.4,0c4.199,0,8.3,0,12.5,0.4c1.8,0.2,4.3,1.3,4.8,2.6
		c0.5,1.4-1,3.5-1.8,5.3c-0.301,0.7-1.101,1.2-1.7,1.8c-12,11-24,22.101-36.2,33c-16.1,14.5-32.3,28.8-48.6,43.101
		c-7,6.199-11.601,6.199-19.2,1c-1.5-1-3-2.101-4.3-3.4c-18.1-16.2-36.2-32.5-54.3-48.8C23.3,118.8,13.9,110.6,4.8,102
		C3,100.3,2.3,97.4,1,95c2.5-0.9,5-2.4,7.6-2.5c13-0.3,26-0.2,39-0.3c1.7,0,3.5,0,5.5,0C53,60.9,53,30.5,53,0z"/>
	<path d="M0,188c66.7,0,133.3,0,200,0c0,4,0,8,0,12c-66.7,0-133.3,0-200,0C0,196,0,192,0,188z"/>
</g>
</svg>
