<?xml version="1.0" encoding="utf-8"?>
<!-- Generator: Adobe Illustrator 16.0.0, SVG Export Plug-In . SVG Version: 6.00 Build 0)  -->
<!DOCTYPE svg PUBLIC "-//W3C//DTD SVG 1.1//EN" "http://www.w3.org/Graphics/SVG/1.1/DTD/svg11.dtd">
<svg version="1.1" id="Ebene_1" xmlns="http://www.w3.org/2000/svg" xmlns:xlink="http://www.w3.org/1999/xlink" x="0px" y="0px"
	 width="200px" height="200px" viewBox="0 0 200 200" enable-background="new 0 0 200 200" xml:space="preserve">
<g>
	<path d="M147,200c-31.3,0-62.7,0-94,0c0-30.6,0-61.2,0-92.2c-11.9,0-23.2,0-34.4,0c-4.2,0-8.3,0-12.5-0.399
		c-1.8-0.2-4.3-1.301-4.8-2.601c-0.5-1.399,1-3.5,1.8-5.3c0.3-0.7,1.1-1.2,1.7-1.8c12-11,24-22.1,36.2-33
		c16.1-14.5,32.3-28.8,48.6-43.1c7-6.2,11.6-6.2,19.2-1c1.5,1,3,2.1,4.3,3.4C131.2,40.2,149.3,56.5,167.4,72.8
		c9.3,8.4,18.699,16.6,27.8,25.2c1.899,1.8,2.6,4.7,3.899,7.1c-2.5,0.9-5,2.4-7.6,2.5c-13,0.301-26,0.2-39,0.301c-1.7,0-3.5,0-5.5,0
		C147,139.1,147,169.5,147,200z"/>
	<path d="M200,12c-66.7,0-133.3,0-200,0C0,8,0,4,0,0c66.7,0,133.3,0,200,0C200,4,200,8,200,12z"/>
</g>
</svg>
