<!-- Generator: Adobe Illustrator 19.0.0, SVG Export Plug-In  -->
<svg version="1.1"
	 xmlns="http://www.w3.org/2000/svg" xmlns:xlink="http://www.w3.org/1999/xlink" xmlns:a="http://ns.adobe.com/AdobeSVGViewerExtensions/3.0/"
	 x="0px" y="0px" width="200px" height="200px" viewBox="0 0 200 200" style="enable-background:new 0 0 200 200;"
	 xml:space="preserve">
<style type="text/css">
	.st0{fill:#FFFFFF;}
</style>
<defs>
</defs>
<g>
	<path d="M147,200c-31.3,0-62.7,0-94,0c0-30.6,0-61.2,0-92.2c-11.9,0-23.2,0-34.4,0c-4.2,0-8.3,0-12.5-0.4c-1.8-0.2-4.3-1.3-4.8-2.6
		c-0.5-1.4,1-3.5,1.8-5.3c0.3-0.7,1.1-1.2,1.7-1.8c12-11,24-22.1,36.2-33c16.1-14.5,32.3-28.8,48.6-43.1c7-6.2,11.6-6.2,19.2-1
		c1.5,1,3,2.1,4.3,3.4c18.1,16.2,36.2,32.5,54.3,48.8c9.3,8.4,18.7,16.6,27.8,25.2c1.9,1.8,2.6,4.7,3.9,7.1c-2.5,0.9-5,2.4-7.6,2.5
		c-13,0.3-26,0.2-39,0.3c-1.7,0-3.5,0-5.5,0C147,139.1,147,169.5,147,200z"/>
	<path class="st0" d="M147,200c0-30.5,0-60.9,0-92.2c2,0,3.7,0,5.5,0c13,0,26,0,39-0.3c2.5-0.1,5-1.6,7.6-2.5
		c-1.3-2.4-2-5.3-3.9-7.1c-9.1-8.6-18.5-16.8-27.8-25.2c-18.1-16.3-36.2-32.5-54.3-48.8c-1.4-1.2-2.8-2.3-4.3-3.4
		c-7.6-5.2-12.2-5.1-19.2,1C73.3,35.9,57.1,50.3,40.9,64.8c-12.1,10.9-24.1,22-36.2,33c-0.6,0.6-1.4,1.1-1.7,1.8
		c-0.8,1.7-2.3,3.9-1.8,5.3c0.5,1.3,3,2.4,4.8,2.6c4.1,0.4,8.3,0.4,12.5,0.4c11.3,0,22.6,0,34.4,0c0,31,0,61.6,0,92.2
		c-17.6,0-35.3,0-53,0C0,137.3,0,74.7,0,12c66.7,0,133.3,0,200,0c0,62.7,0,125.3,0,188C182.3,200,164.7,200,147,200z"/>
	<path d="M200,12c-66.7,0-133.3,0-200,0C0,8,0,4,0,0c66.7,0,133.3,0,200,0C200,4,200,8,200,12z"/>
</g>
</svg>