<?xml version="1.0" encoding="utf-8"?>
<!-- Generator: Adobe Illustrator 16.0.0, SVG Export Plug-In . SVG Version: 6.00 Build 0)  -->
<!DOCTYPE svg PUBLIC "-//W3C//DTD SVG 1.1//EN" "http://www.w3.org/Graphics/SVG/1.1/DTD/svg11.dtd">
<svg version="1.1" id="Ebene_1" xmlns="http://www.w3.org/2000/svg" xmlns:xlink="http://www.w3.org/1999/xlink" x="0px" y="0px"
	 width="271.775px" height="198.549px" viewBox="-35.578 1.221 271.775 198.549"
	 enable-background="new -35.578 1.221 271.775 198.549" xml:space="preserve">
<g>
	<g id="Wi-Fi">
		<g>
			<path d="M100.31,150.133c-13.7,0-24.818,11.118-24.818,24.818c0,13.699,11.119,24.818,24.818,24.818s24.818-11.119,24.818-24.818
				C125.128,161.251,114.009,150.133,100.31,150.133z M233.287,63.358C200.097,23.864,151.626,1.221,100.31,1.221
				c-51.316,0-99.779,22.643-132.978,62.138c-4.41,5.245-3.731,13.071,1.522,17.48c2.325,1.952,5.146,2.912,7.967,2.912
				c3.541,0,7.057-1.506,9.514-4.426C14.793,45.464,56.339,26.04,100.31,26.04c43.97,0,85.516,19.425,113.974,53.277
				c2.458,2.92,5.974,4.426,9.515,4.426c2.821,0,5.65-0.952,7.975-2.913C237.018,76.429,237.696,68.595,233.287,63.358z
				 M100.31,50.858c-36.657,0-71.271,16.173-94.98,44.375c-4.409,5.246-3.731,13.071,1.522,17.481
				c2.324,1.952,5.153,2.913,7.975,2.913c3.541,0,7.057-1.507,9.505-4.428C43.302,88.624,71,75.676,100.31,75.676
				c29.312,0,57.008,12.947,75.986,35.523c2.457,2.93,5.974,4.428,9.505,4.428c2.82,0,5.649-0.953,7.976-2.913
				c5.252-4.41,5.931-12.244,1.522-17.481C171.58,67.031,136.966,50.858,100.31,50.858z M100.31,100.495
				c-22.006,0-42.779,9.703-56.991,26.621c-4.41,5.246-3.731,13.071,1.522,17.481c2.324,1.951,5.153,2.911,7.975,2.911
				c3.54,0,7.057-1.505,9.506-4.426c9.488-11.292,23.337-17.771,37.988-17.771s28.499,6.479,37.988,17.771
				c2.457,2.929,5.973,4.426,9.507,4.426c2.82,0,5.649-0.951,7.974-2.911c5.254-4.41,5.933-12.236,1.522-17.481
				C143.087,110.198,122.314,100.495,100.31,100.495z"/>
		</g>
	</g>
</g>
</svg>
