<?xml version="1.0" encoding="utf-8"?>
<!-- Generator: Adobe Illustrator 16.0.0, SVG Export Plug-In . SVG Version: 6.00 Build 0)  -->
<!DOCTYPE svg PUBLIC "-//W3C//DTD SVG 1.1//EN" "http://www.w3.org/Graphics/SVG/1.1/DTD/svg11.dtd">
<svg version="1.1" id="Ebene_1" xmlns="http://www.w3.org/2000/svg" xmlns:xlink="http://www.w3.org/1999/xlink" x="0px" y="0px"
	 width="200px" height="200px" viewBox="0 0 200 200" enable-background="new 0 0 200 200" xml:space="preserve">
<g>
	<path fill="#1D1D1B" d="M181.126,200c-10.408,0-18.876-8.466-18.876-18.874c0-10.407,8.468-18.876,18.876-18.876
		c10.407,0,18.874,8.469,18.874,18.876C200,191.534,191.533,200,181.126,200z"/>
</g>
<g>
	<path fill="#1D1D1B" d="M50.96,200c-0.108-2.255-0.168-4.522-0.168-6.804c0-79.027,65.474-143.32,145.952-143.32
		c1.089,0,2.173,0.017,3.256,0.041V31.59c-1.084-0.021-2.167-0.041-3.256-0.041c-90.771,0-164.616,72.513-164.616,161.647
		c0,2.28,0.061,4.546,0.156,6.804H50.96z"/>
</g>
<g>
	<path fill="#1D1D1B" d="M83.137,200c-0.139-2.252-0.217-4.519-0.217-6.804c0-61.631,51.059-111.772,113.825-111.772
		c1.089,0,2.174,0.019,3.256,0.049V63.137c-1.082-0.026-2.167-0.041-3.256-0.041c-73.056,0-132.488,58.361-132.488,130.1
		c0,2.282,0.062,4.55,0.181,6.804H83.137z"/>
</g>
<g>
	<path fill="#1D1D1B" d="M115.361,200c-0.192-2.245-0.314-4.51-0.314-6.804c0-44.237,36.648-80.223,81.697-80.223
		c1.092,0,2.174,0.039,3.256,0.081V94.702c-1.082-0.034-2.166-0.057-3.256-0.057c-55.34,0-100.361,44.209-100.361,98.551
		c0,2.287,0.086,4.555,0.244,6.804H115.361z"/>
</g>
<g>
	<path fill="#1D1D1B" d="M147.668,200c-0.318-2.225-0.494-4.494-0.494-6.804c0-26.841,22.236-48.677,49.57-48.677
		c1.095,0,2.179,0.048,3.256,0.116v-18.362c-1.079-0.05-2.164-0.081-3.256-0.081c-37.624,0-68.235,30.06-68.235,67.004
		c0,2.297,0.119,4.566,0.351,6.804H147.668z"/>
</g>
</svg>
