<?xml version="1.0" encoding="utf-8"?>
<!-- Generator: Adobe Illustrator 16.0.0, SVG Export Plug-In . SVG Version: 6.00 Build 0)  -->
<!DOCTYPE svg PUBLIC "-//W3C//DTD SVG 1.1//EN" "http://www.w3.org/Graphics/SVG/1.1/DTD/svg11.dtd">
<svg version="1.1" id="Ebene_1" xmlns="http://www.w3.org/2000/svg" xmlns:xlink="http://www.w3.org/1999/xlink" x="0px" y="0px"
	 width="200px" height="200px" viewBox="0 0 200 200" enable-background="new 0 0 200 200" xml:space="preserve">
<g>
	<path fill="#1D1D1B" d="M181.126,200c-10.408,0-18.876-8.466-18.876-18.874c0-10.407,8.468-18.876,18.876-18.876
		c10.407,0,18.874,8.469,18.874,18.876C200,191.534,191.533,200,181.126,200z"/>
</g>
<g>
	<path fill="#1D1D1B" d="M147.668,200c-0.318-2.225-0.494-4.494-0.494-6.804c0-26.841,22.236-48.677,49.57-48.677
		c1.095,0,2.179,0.048,3.256,0.116v-18.362c-1.079-0.05-2.164-0.081-3.256-0.081c-37.624,0-68.235,30.06-68.235,67.004
		c0,2.297,0.119,4.566,0.351,6.804H147.668z"/>
</g>
</svg>
